<svg width="46" height="46" viewBox="0 0 46 46" fill="none" xmlns="http://www.w3.org/2000/svg">
<path d="M43.8403 20.6231L45.9812 2.91607C46.0285 2.52422 45.9862 2.12675 45.8573 1.75368C45.7284 1.38062 45.5164 1.04173 45.2372 0.762642C44.9581 0.483552 44.6191 0.271563 44.246 0.142696C43.8729 0.0138296 43.4753 -0.0285406 43.0834 0.0187894L25.373 2.15861C21.5229 2.62385 17.8063 3.86085 14.4455 5.79559C11.0847 7.73033 8.14887 10.323 5.8136 13.4186C3.47834 16.5141 1.79167 20.0488 0.854519 23.8113C-0.0826292 27.5737 -0.250992 31.4865 0.359506 35.3155L1.48041 42.3488C1.56688 42.8908 1.82248 43.3917 2.21068 43.7798C2.59889 44.1679 3.09984 44.4235 3.64199 44.51L10.6767 45.6313C12.2042 45.876 13.7488 45.9993 15.2959 46C22.3299 45.9757 29.1127 43.3832 34.3691 38.7099C39.6255 34.0366 42.9943 27.6047 43.8403 20.6231ZM29.4416 36.0211C26.9102 37.9439 24.014 39.3317 20.9292 40.0999C17.8444 40.8682 14.6355 41.0009 11.4978 40.49L9.50366 40.1719L10.8932 38.7826H19.0882C19.7789 38.7826 20.4413 38.5083 20.9297 38.0199C21.4182 37.5316 21.6925 36.8693 21.6925 36.1788C21.6925 35.4882 21.4182 34.8259 20.9297 34.3376C20.4413 33.8493 19.7789 33.5749 19.0882 33.5749H16.1014L17.0636 32.6127L17.067 32.6096L22.485 27.1924H30.6795C31.3702 27.1924 32.0326 26.9181 32.5211 26.4298C33.0095 25.9415 33.2838 25.2792 33.2838 24.5886C33.2838 23.898 33.0095 23.2357 32.5211 22.7474C32.0326 22.2591 31.3702 21.9848 30.6795 21.9848H27.6937L30.9135 18.7657C31.1604 18.525 31.357 18.2378 31.492 17.9206C31.6269 17.6034 31.6976 17.2625 31.6997 16.9178C31.7019 16.5731 31.6356 16.2314 31.5047 15.9125C31.3738 15.5936 31.1808 15.3039 30.937 15.0601C30.6932 14.8164 30.4034 14.6235 30.0845 14.4925C29.7655 14.3616 29.4237 14.2954 29.079 14.2975C28.7342 14.2997 28.3933 14.3703 28.076 14.5053C27.7588 14.6402 27.4714 14.8368 27.2308 15.0836L19.57 22.7429L19.56 22.753L17.8281 24.4846V21.4992C17.8281 20.8086 17.5537 20.1463 17.0653 19.658C16.5769 19.1697 15.9145 18.8954 15.2238 18.8954C14.5331 18.8954 13.8707 19.1697 13.3823 19.658C12.8939 20.1463 12.6195 20.8086 12.6195 21.4992V29.692L7.97467 34.3362L7.97128 34.3393L5.82116 36.4893L5.50304 34.4967C5.00271 31.3593 5.14058 28.1532 5.90838 25.0703C6.67618 21.9875 8.05814 19.0911 9.97157 16.5546C11.885 14.0182 14.2905 11.8937 17.0443 10.3083C19.798 8.723 22.8433 7.70937 25.998 7.32812L40.412 5.58629L38.6698 19.9972C38.2997 23.1544 37.2907 26.2033 35.7042 28.9581C34.1176 31.713 31.9868 34.1161 29.4416 36.0211Z" fill="white"/>
</svg>
