<svg width="46" height="45" viewBox="0 0 46 45" fill="none" xmlns="http://www.w3.org/2000/svg">
<path d="M42.6573 20.8374C42.9922 20.9332 43.3426 20.9609 43.6882 20.9189C44.0338 20.877 44.3676 20.7662 44.6703 20.593C44.9731 20.4198 45.2386 20.1876 45.4515 19.91C45.6644 19.6324 45.8205 19.3149 45.9105 18.9759C46.0006 18.637 46.023 18.2834 45.9762 17.9356C45.9295 17.5879 45.8147 17.253 45.6384 16.9504C45.4622 16.6478 45.228 16.3836 44.9495 16.1731C44.671 15.9626 44.3538 15.81 44.0163 15.7242L37.5853 13.987L39.3084 7.50386C39.4775 6.82956 39.3765 6.11531 39.0272 5.5155C38.678 4.91569 38.1087 4.47852 37.4423 4.29851C36.7759 4.1185 36.0661 4.21011 35.4661 4.55353C34.8662 4.89695 34.4245 5.46459 34.2364 6.13374L32.1155 14.1137L25.6258 17.8909V10.337L31.4209 4.49495C31.9031 3.99643 32.171 3.32651 32.1666 2.63029C32.1622 1.93407 31.8859 1.26762 31.3976 0.775306C30.9092 0.282995 30.2481 0.00446485 29.5575 5.32114e-05C28.8669 -0.00435842 28.2024 0.265705 27.7079 0.751738L23 5.49791L18.2921 0.751738C17.7976 0.265705 17.1331 -0.00435842 16.4425 5.32114e-05C15.7519 0.00446485 15.0908 0.282995 14.6024 0.775306C14.1141 1.26762 13.8378 1.93407 13.8334 2.63029C13.8291 3.32651 14.0969 3.99643 14.5791 4.49495L20.3742 10.337V17.8917L13.8848 14.115L11.7636 6.13414C11.5755 5.465 11.1338 4.89736 10.5339 4.55394C9.93394 4.21052 9.22405 4.1189 8.55767 4.29891C7.89129 4.47892 7.32196 4.91609 6.97275 5.5159C6.62355 6.1157 6.52253 6.82996 6.69154 7.50425L8.4147 13.9874L1.98369 15.7246C1.64618 15.8104 1.32896 15.963 1.05048 16.1735C0.772 16.384 0.537815 16.6482 0.361552 16.9508C0.185289 17.2534 0.0704626 17.5883 0.0237513 17.936C-0.0229601 18.2838 -0.000624562 18.6374 0.0894593 18.9763C0.179543 19.3153 0.33558 19.6328 0.548489 19.9104C0.761399 20.188 1.02693 20.4201 1.32965 20.5934C1.63237 20.7666 1.96623 20.8774 2.31181 20.9193C2.65739 20.9613 3.0078 20.9336 3.34265 20.8378L11.2584 18.6996L17.7477 22.4763L11.2584 26.2534L3.34265 24.1152C3.0078 24.0194 2.65739 23.9917 2.31181 24.0336C1.96623 24.0756 1.63237 24.1864 1.32965 24.3596C1.02693 24.5328 0.761399 24.765 0.548489 25.0426C0.33558 25.3202 0.179543 25.6377 0.0894593 25.9766C-0.000624562 26.3156 -0.0229601 26.6692 0.0237513 27.0169C0.0704626 27.3647 0.185289 27.6995 0.361552 28.0021C0.537815 28.3047 0.772 28.569 1.05048 28.7795C1.32896 28.99 1.64618 29.1426 1.98369 29.2284L8.4147 30.9655L6.69154 37.4487C6.59668 37.7862 6.56931 38.1394 6.61102 38.4876C6.65273 38.8359 6.7627 39.1724 6.93453 39.4774C7.10636 39.7825 7.33662 40.0501 7.61193 40.2646C7.88724 40.4792 8.20211 40.6364 8.53823 40.7272C8.87435 40.818 9.22503 40.8405 9.56987 40.7935C9.91471 40.7465 10.2468 40.6308 10.5469 40.4532C10.847 40.2757 11.1092 40.0397 11.318 39.7592C11.5269 39.4786 11.6783 39.1589 11.7636 38.8188L13.8848 30.8379L20.3742 27.0609V34.6156L14.5791 40.4576C14.3302 40.7023 14.1319 40.9943 13.9959 41.3168C13.8598 41.6392 13.7886 41.9857 13.7864 42.3362C13.7842 42.6866 13.851 43.034 13.983 43.3582C14.115 43.6824 14.3096 43.9769 14.5554 44.2247C14.8012 44.4725 15.0934 44.6686 15.4149 44.8017C15.7365 44.9348 16.0811 45.0022 16.4287 45C16.7763 44.9977 17.12 44.9259 17.4399 44.7888C17.7598 44.6516 18.0495 44.4517 18.2921 44.2008L23 39.4546L27.7079 44.2008C28.2024 44.6869 28.8669 44.9569 29.5575 44.9525C30.2481 44.9481 30.9092 44.6696 31.3976 44.1773C31.8859 43.6849 32.1622 43.0185 32.1666 42.3223C32.171 41.6261 31.9031 40.9561 31.4209 40.4576L25.6258 34.6156V27.0615L32.1155 30.8389L34.2364 38.8188C34.4245 39.488 34.8662 40.0556 35.4661 40.399C36.0661 40.7425 36.7759 40.8341 37.4423 40.654C38.1087 40.474 38.678 40.0369 39.0272 39.4371C39.3765 38.8372 39.4775 38.123 39.3084 37.4487L37.5853 30.9655L44.0163 29.2284C44.3538 29.1426 44.671 28.99 44.9495 28.7795C45.228 28.569 45.4622 28.3047 45.6384 28.0021C45.8147 27.6995 45.9295 27.3647 45.9762 27.0169C46.023 26.6692 46.0006 26.3156 45.9105 25.9766C45.8205 25.6377 45.6644 25.3202 45.4515 25.0426C45.2386 24.765 44.9731 24.5328 44.6703 24.3596C44.3676 24.1864 44.0338 24.0756 43.6882 24.0336C43.3426 23.9917 42.9922 24.0194 42.6573 24.1152L34.7407 26.253L28.2515 22.4763L34.7408 18.6996L42.6573 20.8374Z" fill="white"/>
</svg>
