<svg width="60" height="60" viewBox="0 0 60 60" fill="none" xmlns="http://www.w3.org/2000/svg">
<path d="M30 45.6521C33.0957 45.6521 36.1219 44.7341 38.6959 43.0143C41.2699 41.2944 43.2761 38.8498 44.4607 35.9898C45.6454 33.1297 45.9554 29.9826 45.3514 26.9464C44.7475 23.9101 43.2568 21.1212 41.0678 18.9322C38.8788 16.7432 36.0898 15.2525 33.0536 14.6485C30.0174 14.0446 26.8702 14.3546 24.0102 15.5392C21.1501 16.7239 18.7056 18.7301 16.9857 21.3041C15.2658 23.8781 14.3478 26.9043 14.3478 30C14.3525 34.1498 16.003 38.1283 18.9374 41.0626C21.8717 43.997 25.8502 45.6475 30 45.6521ZM30 19.5652C32.0638 19.5652 34.0813 20.1772 35.7973 21.3238C37.5133 22.4703 38.8507 24.1 39.6405 26.0067C40.4303 27.9134 40.6369 30.0115 40.2343 32.0357C39.8317 34.0598 38.8378 35.9191 37.3785 37.3785C35.9192 38.8378 34.0599 39.8316 32.0357 40.2342C30.0116 40.6369 27.9135 40.4302 26.0068 39.6404C24.1001 38.8507 22.4704 37.5132 21.3238 35.7972C20.1772 34.0812 19.5652 32.0638 19.5652 30C19.5684 27.2335 20.6688 24.5812 22.625 22.625C24.5812 20.6687 27.2335 19.5684 30 19.5652Z" fill="white"/>
<path d="M30 11.7391C30.6919 11.7391 31.3554 11.4643 31.8446 10.9751C32.3338 10.4858 32.6087 9.8223 32.6087 9.13043V2.6087C32.6087 1.91683 32.3338 1.25329 31.8446 0.764069C31.3554 0.274844 30.6919 0 30 0C29.3081 0 28.6446 0.274844 28.1554 0.764069C27.6661 1.25329 27.3913 1.91683 27.3913 2.6087V9.13043C27.3913 9.8223 27.6661 10.4858 28.1554 10.9751C28.6446 11.4643 29.3081 11.7391 30 11.7391Z" fill="white"/>
<path d="M44.7568 17.8519C45.0995 17.8523 45.4389 17.785 45.7555 17.6539C46.0721 17.5227 46.3597 17.3303 46.6018 17.0877L51.2136 12.4754C51.6992 11.9854 51.971 11.323 51.9694 10.6331C51.9679 9.94318 51.6931 9.282 51.2052 8.79421C50.7174 8.30642 50.0562 8.03174 49.3663 8.03028C48.6764 8.02882 48.014 8.30069 47.5241 8.78641L42.9116 13.3988C42.5469 13.7637 42.2985 14.2286 42.1979 14.7346C42.0973 15.2406 42.1491 15.7651 42.3466 16.2418C42.544 16.7184 42.8784 17.1258 43.3075 17.4124C43.7365 17.699 44.2408 17.8519 44.7568 17.8519Z" fill="white"/>
<path d="M48.2609 29.9999C48.2609 30.6918 48.5357 31.3553 49.0249 31.8446C49.5142 32.3338 50.1777 32.6086 50.8696 32.6086H57.3913C58.0832 32.6086 58.7467 32.3338 59.2359 31.8446C59.7252 31.3553 60 30.6918 60 29.9999C60 29.3081 59.7252 28.6445 59.2359 28.1553C58.7467 27.6661 58.0832 27.3912 57.3913 27.3912H50.8696C50.1777 27.3912 49.5142 27.6661 49.0249 28.1553C48.5357 28.6445 48.2609 29.3081 48.2609 29.9999Z" fill="white"/>
<path d="M42.9123 42.9123C42.4231 43.4014 42.1482 44.0648 42.1481 44.7565C42.148 45.4483 42.4226 46.1118 42.9116 46.6011L47.5241 51.2135C48.014 51.6992 48.6764 51.9711 49.3662 51.9696C50.0561 51.9682 50.7174 51.6935 51.2052 51.2057C51.6931 50.7179 51.9679 50.0567 51.9694 49.3669C51.971 48.677 51.6992 48.0146 51.2135 47.5246L46.6018 42.9123C46.3595 42.67 46.0719 42.4778 45.7554 42.3467C45.4389 42.2156 45.0996 42.1481 44.757 42.1481C44.4144 42.1481 44.0752 42.2156 43.7586 42.3467C43.4421 42.4778 43.1545 42.67 42.9123 42.9123Z" fill="white"/>
<path d="M27.3913 50.8696V57.3913C27.3913 58.0832 27.6661 58.7467 28.1554 59.2359C28.6446 59.7252 29.3081 60 30 60C30.6919 60 31.3554 59.7252 31.8446 59.2359C32.3338 58.7467 32.6087 58.0832 32.6087 57.3913V50.8696C32.6087 50.1777 32.3338 49.5142 31.8446 49.0249C31.3554 48.5357 30.6919 48.2609 30 48.2609C29.3081 48.2609 28.6446 48.5357 28.1554 49.0249C27.6661 49.5142 27.3913 50.1777 27.3913 50.8696Z" fill="white"/>
<path d="M13.3982 42.9121L8.78647 47.5245C8.54251 47.7663 8.34872 48.054 8.21623 48.371C8.08374 48.6879 8.01517 49.0279 8.01444 49.3715C8.01371 49.715 8.08084 50.0553 8.21199 50.3728C8.34313 50.6904 8.5357 50.9789 8.77863 51.2218C9.02157 51.4647 9.31009 51.6572 9.62763 51.7883C9.94518 51.9194 10.2855 51.9865 10.629 51.9857C10.9726 51.9849 11.3126 51.9163 11.6295 51.7838C11.9465 51.6512 12.2341 51.4574 12.4759 51.2134L17.0884 46.601C17.5775 46.1116 17.8523 45.448 17.8522 44.7561C17.852 44.0642 17.5771 43.4007 17.0877 42.9115C16.5984 42.4223 15.9348 42.1476 15.2429 42.1477C14.5509 42.1478 13.8874 42.4228 13.3982 42.9121Z" fill="white"/>
<path d="M2.6087 32.6086H9.13043C9.8223 32.6086 10.4858 32.3338 10.9751 31.8446C11.4643 31.3553 11.7391 30.6918 11.7391 29.9999C11.7391 29.3081 11.4643 28.6445 10.9751 28.1553C10.4858 27.6661 9.8223 27.3912 9.13043 27.3912H2.6087C1.91683 27.3912 1.25329 27.6661 0.764067 28.1553C0.274842 28.6445 0 29.3081 0 29.9999C0 30.6918 0.274842 31.3553 0.764067 31.8446C1.25329 32.3338 1.91683 32.6086 2.6087 32.6086Z" fill="white"/>
<path d="M13.3983 17.0877C13.6405 17.33 13.9281 17.5222 14.2445 17.6533C14.561 17.7845 14.9003 17.8521 15.2429 17.8521C15.5855 17.8522 15.9247 17.7848 16.2413 17.6537C16.5578 17.5227 16.8455 17.3305 17.0878 17.0883C17.3301 16.8461 17.5223 16.5585 17.6534 16.2421C17.7846 15.9256 17.8521 15.5863 17.8522 15.2437C17.8523 14.9011 17.7848 14.5619 17.6538 14.2453C17.5227 13.9288 17.3306 13.6411 17.0884 13.3988L12.476 8.78641C11.986 8.30069 11.3237 8.02882 10.6338 8.03028C9.94389 8.03174 9.28267 8.30642 8.79481 8.79421C8.30695 9.282 8.03218 9.94318 8.03062 10.6331C8.02906 11.323 8.30084 11.9854 8.78649 12.4754L13.3983 17.0877Z" fill="white"/>
</svg>
