<svg width="55" height="44" viewBox="0 0 55 44" fill="none" xmlns="http://www.w3.org/2000/svg">
<path d="M54.633 21.7574C54.2389 19.6738 53.1697 17.7779 51.5906 16.3625C50.0115 14.9471 48.0103 14.0909 45.8961 13.9262C45.666 13.2658 45.3342 12.6453 44.9128 12.0871C44.2052 10.9992 43.282 10.0681 42.2001 9.35139C41.1182 8.63468 39.9008 8.14763 38.6231 7.92037C37.2576 5.29239 35.13 3.13827 32.5191 1.74033C29.9082 0.342393 26.9359 -0.234144 23.9918 0.086289C21.0476 0.406722 18.2689 1.60917 16.0199 3.53604C13.7709 5.46291 12.1565 8.0243 11.3883 10.8845C10.9079 10.872 10.4272 10.8895 9.94897 10.9367C8.32041 11.1028 6.74893 11.6279 5.3477 12.4743C3.94648 13.3207 2.75036 14.4672 1.84546 15.8314C0.940572 17.1955 0.349431 18.7434 0.114591 20.3635C-0.120249 21.9835 0.00705289 23.6355 0.48735 25.2005C0.797144 26.238 1.43348 27.1479 2.30176 27.7948C3.17003 28.4417 4.22388 28.7912 5.30666 28.7912H49.7513C51.0227 28.7883 52.246 28.3045 53.1755 27.4369C54.105 26.5693 54.6719 25.3822 54.7623 24.114C54.8143 23.3261 54.7709 22.5349 54.633 21.7574ZM5.44609 23.5738C5.15495 22.5617 5.14207 21.4898 5.40883 20.4709C5.67558 19.452 6.2121 18.5239 6.96189 17.7843C7.71168 17.0447 8.64702 16.5209 9.66942 16.2681C10.6918 16.0153 11.7635 16.0428 12.7716 16.3478C13.1468 16.4613 13.5428 16.4888 13.9302 16.4281C14.3175 16.3675 14.6862 16.2203 15.0088 15.9976C15.3314 15.7748 15.5996 15.4821 15.7935 15.1414C15.9874 14.8006 16.102 14.4205 16.1287 14.0294C16.2811 11.8669 17.1703 9.82203 18.6478 8.2357C20.1253 6.64936 22.102 5.61745 24.2483 5.31202C26.3945 5.0066 28.5806 5.44611 30.442 6.55728C32.3034 7.66845 33.7277 9.38412 34.4774 11.4182C34.68 11.9714 35.0644 12.4394 35.5678 12.7456C36.0711 13.0518 36.6635 13.1779 37.2479 13.1035C37.8944 13.0295 38.9732 12.8907 40.7558 15.2408C41.0005 15.6107 41.1224 16.0484 41.1042 16.4916C41.0755 16.8971 41.142 17.3037 41.2984 17.679C41.4548 18.0542 41.6968 18.3877 42.005 18.6527C42.3132 18.9178 42.6791 19.1072 43.0735 19.2057C43.4679 19.3042 43.8799 19.3091 44.2765 19.2201C44.5873 19.1527 44.9044 19.119 45.2223 19.1195C46.2324 19.1345 47.2083 19.4946 47.9854 20.14C48.7626 20.7853 49.2956 21.6772 49.4959 22.6673C49.5489 22.9665 49.5722 23.2701 49.5653 23.5738H5.44609Z" fill="white"/>
<path d="M28.7345 31.772C28.4409 31.5956 28.1153 31.4789 27.7765 31.4284C27.4377 31.3779 27.0923 31.3946 26.76 31.4777C26.4277 31.5607 26.115 31.7084 25.8397 31.9123C25.5645 32.1162 25.3321 32.3724 25.1559 32.6661L21.2429 39.1878C21.0666 39.4816 20.9498 39.8072 20.8994 40.1461C20.8489 40.4849 20.8657 40.8304 20.9487 41.1628C21.0318 41.4952 21.1795 41.808 21.3834 42.0833C21.5873 42.3586 21.8435 42.591 22.1373 42.7673C22.431 42.9436 22.7566 43.0604 23.0955 43.1108C23.4344 43.1613 23.7799 43.1445 24.1123 43.0615C24.4446 42.9784 24.7574 42.8307 25.0327 42.6268C25.308 42.4229 25.5405 42.1667 25.7168 41.8729L29.6298 35.3512C29.8061 35.0574 29.9227 34.7318 29.9731 34.3929C30.0235 34.054 30.0067 33.7085 29.9235 33.3761C29.8404 33.0438 29.6926 32.731 29.4886 32.4558C29.2846 32.1805 29.0283 31.9482 28.7345 31.772Z" fill="white"/>
<path d="M10.4336 43.139C10.8845 43.1397 11.3278 43.0235 11.7203 42.8015C12.1128 42.5796 12.441 42.2596 12.6729 41.8729L16.5859 35.3511C16.942 34.7579 17.0478 34.0474 16.8801 33.3762C16.7123 32.7049 16.2848 32.1277 15.6915 31.7716C15.0982 31.4156 14.3878 31.3097 13.7165 31.4775C13.0452 31.6452 12.4681 32.0727 12.112 32.666L8.19896 39.1878C7.96144 39.5835 7.83316 40.0351 7.82718 40.4965C7.82121 40.958 7.93776 41.4128 8.16494 41.8145C8.39213 42.2162 8.72182 42.5505 9.12037 42.7832C9.51892 43.0159 9.97207 43.1386 10.4336 43.139Z" fill="white"/>
<path d="M41.778 31.7719C41.4844 31.5956 41.1588 31.4789 40.8201 31.4284C40.4813 31.3779 40.1358 31.3947 39.8035 31.4777C39.4712 31.5607 39.1585 31.7084 38.8833 31.9123C38.608 32.1162 38.3757 32.3723 38.1994 32.666L34.2864 39.1878C34.1101 39.4815 33.9934 39.8071 33.9429 40.146C33.8924 40.4849 33.9092 40.8304 33.9922 41.1628C34.0753 41.4952 34.223 41.8079 34.4269 42.0832C34.6309 42.3585 34.887 42.591 35.1808 42.7673C35.4745 42.9436 35.8002 43.0603 36.139 43.1108C36.4779 43.1613 36.8234 43.1445 37.1558 43.0614C37.4882 42.9784 37.8009 42.8307 38.0762 42.6268C38.3516 42.4228 38.584 42.1667 38.7603 41.8729L42.6734 35.3512C42.8496 35.0574 42.9663 34.7317 43.0167 34.3928C43.0671 34.054 43.0502 33.7085 42.9671 33.3761C42.8839 33.0437 42.7361 32.731 42.5321 32.4557C42.3281 32.1805 42.0719 31.9481 41.778 31.7719Z" fill="white"/>
</svg>
